<svg t="1737187700922"
  class="icon" viewBox="0 0 1203 1024" version="1.1" p-id="28539"width="1em" height="1em">
  <path
    d="M25.6 104.96V870.4c0 43.52 33.28 76.8 76.8 76.8h17.92l51.2-527.36H1049.6v-158.72c0-28.16-25.6-53.76-58.88-53.76H601.6l-112.64-125.44c-20.48-20.48-46.08-33.28-76.8-33.28H84.48C51.2 51.2 25.6 74.24 25.6 104.96z"
    fill="#FF9E00" p-id="28540"></path>
  <path
    d="M1064.96 908.8l94.72-460.8c5.12-28.16-12.8-53.76-40.96-61.44H204.8c-23.04 0-43.52 15.36-48.64 38.4l-112.64 460.8c-7.68 28.16 10.24 56.32 38.4 61.44 5.12 0 7.68 2.56 12.8 2.56h924.16c20.48 2.56 40.96-15.36 46.08-40.96z"
    fill="#FFCB00" p-id="28541"></path>
</svg>