<svg class="icon" viewBox="0 0 1203 1024" version="1.1" p-id="28539" width="1em" height="1em">
  <path
    d="M 25.6 105 V 870.4 c 0 43.5 33.3 76.8 76.8 76.8 h 17.9 l 51.2 -527.4 H 1049.6 v -158.7 c 0 -28.2 -25.6 -53.8 -58.9 -53.8 H 601.6 l -112.6 -125.4 c -20.5 -20.5 -46.1 -33.3 -76.8 -33.3 H 84.5 C 51.2 51.2 25.6 74.2 25.6 105 z"
    fill="#ff9e00" p-id="28540" />
  <path
    d="M 1065 908.8 l 94.7 -460.8 c 5.1 -28.2 -12.8 -53.8 -41 -61.4 H 204.8 c -23 0 -43.5 15.4 -48.6 38.4 l -112.6 460.8 c -7.7 28.2 10.2 56.3 38.4 61.4 c 5.1 0 7.7 2.6 12.8 2.6 h 924.2 c 20.5 2.6 41 -15.4 46.1 -41 z"
    fill="#ffcb00" p-id="28541" />
  <path d="M 384 460.8 h 409.6 v 409.6 H 384 z" fill="#ffffff" opacity=".01" p-id="28542" />
  <path
    d="M 486.4 640 h 230.4 c 28.2 0 51.2 23 51.2 51.2 v 76.8 c 0 28.2 -23 51.2 -51.2 51.2 h -230.4 c -28.2 0 -51.2 -23 -51.2 -51.2 v -76.8 c 0 -28.2 23 -51.2 51.2 -51.2 z"
    fill="#ffffff" p-id="28543" />
  <path
    d="M 716.8 844.8 h -230.4 c -43.5 0 -76.8 -33.3 -76.8 -76.8 v -76.8 c 0 -43.5 33.3 -76.8 76.8 -76.8 h 230.4 c 43.5 0 76.8 33.3 76.8 76.8 v 76.8 c 0 43.5 -33.3 76.8 -76.8 76.8 z m -230.4 -179.2 c -15.4 0 -25.6 10.2 -25.6 25.6 v 76.8 c 0 15.4 10.2 25.6 25.6 25.6 h 230.4 c 15.4 0 25.6 -10.2 25.6 -25.6 v -76.8 c 0 -15.4 -10.2 -25.6 -25.6 -25.6 h -230.4 z"
    fill="#ffffff" p-id="28544" />
  <path
    d="M 691.2 665.6 c -15.4 0 -25.6 -10.2 -25.6 -25.6 v -69.1 c 0 -33.3 -28.2 -58.9 -64 -58.9 S 537.6 537.6 537.6 570.9 V 640 c 0 15.4 -10.2 25.6 -25.6 25.6 s -25.6 -10.2 -25.6 -25.6 v -69.1 c 0 -61.4 51.2 -110.1 115.2 -110.1 s 115.2 48.6 115.2 110.1 V 640 c 0 15.4 -10.2 25.6 -25.6 25.6 z"
    fill="#ffffff" p-id="28545" />
  <path
    d="M 601.6 793.6 c -15.4 0 -25.6 -10.2 -25.6 -25.6 v -51.2 c 0 -15.4 10.2 -25.6 25.6 -25.6 s 25.6 10.2 25.6 25.6 v 51.2 c 0 15.4 -10.2 25.6 -25.6 25.6 z"
    fill="#ffcb00" p-id="28546" />
</svg>